<mxfile host="app.diagrams.net" modified="2021-05-11T05:20:29.794Z" agent="5.0 (Windows NT 10.0; Win64; x64) AppleWebKit/537.36 (KHTML, like Gecko) Chrome/90.0.4430.93 Safari/537.36" etag="TJcmG-Mu6B6T0pDsuH3g" version="14.6.11" type="github">
  <diagram id="R2lEEEUBdFMjLlhIrx00" name="Page-1">
    <mxGraphModel dx="876" dy="437" grid="1" gridSize="10" guides="1" tooltips="1" connect="1" arrows="1" fold="1" page="1" pageScale="1" pageWidth="850" pageHeight="1100" math="0" shadow="0" extFonts="Permanent Marker^https://fonts.googleapis.com/css?family=Permanent+Marker">
      <root>
        <mxCell id="0" />
        <mxCell id="1" parent="0" />
        <mxCell id="3EpWb8FBWg7WW-v6C6NJ-8" value="" style="edgeStyle=none;rounded=0;orthogonalLoop=1;jettySize=auto;html=1;startArrow=none;startFill=0;endArrow=none;endFill=0;" edge="1" parent="1" source="3EpWb8FBWg7WW-v6C6NJ-2" target="3EpWb8FBWg7WW-v6C6NJ-4">
          <mxGeometry relative="1" as="geometry" />
        </mxCell>
        <mxCell id="3EpWb8FBWg7WW-v6C6NJ-2" value="&lt;font style=&quot;vertical-align: inherit&quot;&gt;&lt;font style=&quot;vertical-align: inherit&quot;&gt;供应商&lt;/font&gt;&lt;/font&gt;" style="rounded=1;arcSize=10;whiteSpace=wrap;html=1;align=center;" vertex="1" parent="1">
          <mxGeometry x="140" y="160" width="100" height="40" as="geometry" />
        </mxCell>
        <mxCell id="3EpWb8FBWg7WW-v6C6NJ-7" style="orthogonalLoop=1;jettySize=auto;html=1;exitX=0.5;exitY=1;exitDx=0;exitDy=0;rounded=0;startArrow=none;startFill=0;endArrow=none;endFill=0;" edge="1" parent="1" source="3EpWb8FBWg7WW-v6C6NJ-3" target="3EpWb8FBWg7WW-v6C6NJ-2">
          <mxGeometry relative="1" as="geometry" />
        </mxCell>
        <mxCell id="3EpWb8FBWg7WW-v6C6NJ-3" value="供应商编号" style="ellipse;whiteSpace=wrap;html=1;align=center;" vertex="1" parent="1">
          <mxGeometry x="160" y="70" width="100" height="40" as="geometry" />
        </mxCell>
        <mxCell id="3EpWb8FBWg7WW-v6C6NJ-35" value="" style="edgeStyle=none;rounded=0;orthogonalLoop=1;jettySize=auto;html=1;startArrow=none;startFill=0;endArrow=none;endFill=0;" edge="1" parent="1" source="3EpWb8FBWg7WW-v6C6NJ-4" target="3EpWb8FBWg7WW-v6C6NJ-5">
          <mxGeometry relative="1" as="geometry" />
        </mxCell>
        <mxCell id="3EpWb8FBWg7WW-v6C6NJ-4" value="属于" style="shape=rhombus;perimeter=rhombusPerimeter;whiteSpace=wrap;html=1;align=center;" vertex="1" parent="1">
          <mxGeometry x="310" y="155" width="90" height="50" as="geometry" />
        </mxCell>
        <mxCell id="3EpWb8FBWg7WW-v6C6NJ-5" value="&lt;font style=&quot;vertical-align: inherit&quot;&gt;&lt;font style=&quot;vertical-align: inherit&quot;&gt;行政区&lt;/font&gt;&lt;/font&gt;" style="rounded=1;arcSize=10;whiteSpace=wrap;html=1;align=center;" vertex="1" parent="1">
          <mxGeometry x="460" y="160" width="100" height="40" as="geometry" />
        </mxCell>
        <mxCell id="3EpWb8FBWg7WW-v6C6NJ-20" value="" style="edgeStyle=none;rounded=0;orthogonalLoop=1;jettySize=auto;html=1;startArrow=none;startFill=0;endArrow=none;endFill=0;" edge="1" parent="1" source="3EpWb8FBWg7WW-v6C6NJ-13" target="3EpWb8FBWg7WW-v6C6NJ-2">
          <mxGeometry relative="1" as="geometry" />
        </mxCell>
        <mxCell id="3EpWb8FBWg7WW-v6C6NJ-13" value="名称" style="ellipse;whiteSpace=wrap;html=1;align=center;" vertex="1" parent="1">
          <mxGeometry y="150" width="100" height="40" as="geometry" />
        </mxCell>
        <mxCell id="3EpWb8FBWg7WW-v6C6NJ-19" style="edgeStyle=none;rounded=0;orthogonalLoop=1;jettySize=auto;html=1;entryX=0.5;entryY=0;entryDx=0;entryDy=0;startArrow=none;startFill=0;endArrow=none;endFill=0;" edge="1" parent="1" source="3EpWb8FBWg7WW-v6C6NJ-14" target="3EpWb8FBWg7WW-v6C6NJ-2">
          <mxGeometry relative="1" as="geometry" />
        </mxCell>
        <mxCell id="3EpWb8FBWg7WW-v6C6NJ-14" value="地址" style="ellipse;whiteSpace=wrap;html=1;align=center;" vertex="1" parent="1">
          <mxGeometry x="20" y="90" width="100" height="40" as="geometry" />
        </mxCell>
        <mxCell id="3EpWb8FBWg7WW-v6C6NJ-21" style="edgeStyle=none;rounded=0;orthogonalLoop=1;jettySize=auto;html=1;exitX=1;exitY=0.5;exitDx=0;exitDy=0;startArrow=none;startFill=0;endArrow=none;endFill=0;entryX=0.5;entryY=1;entryDx=0;entryDy=0;" edge="1" parent="1" source="3EpWb8FBWg7WW-v6C6NJ-15" target="3EpWb8FBWg7WW-v6C6NJ-2">
          <mxGeometry relative="1" as="geometry">
            <mxPoint x="140" y="180" as="targetPoint" />
          </mxGeometry>
        </mxCell>
        <mxCell id="3EpWb8FBWg7WW-v6C6NJ-15" value="联系人" style="ellipse;whiteSpace=wrap;html=1;align=center;" vertex="1" parent="1">
          <mxGeometry y="210" width="100" height="40" as="geometry" />
        </mxCell>
        <mxCell id="3EpWb8FBWg7WW-v6C6NJ-22" style="edgeStyle=none;rounded=0;orthogonalLoop=1;jettySize=auto;html=1;entryX=0.5;entryY=1;entryDx=0;entryDy=0;startArrow=none;startFill=0;endArrow=none;endFill=0;" edge="1" parent="1" source="3EpWb8FBWg7WW-v6C6NJ-16" target="3EpWb8FBWg7WW-v6C6NJ-2">
          <mxGeometry relative="1" as="geometry" />
        </mxCell>
        <mxCell id="3EpWb8FBWg7WW-v6C6NJ-16" value="联系电话" style="ellipse;whiteSpace=wrap;html=1;align=center;" vertex="1" parent="1">
          <mxGeometry x="80" y="260" width="100" height="40" as="geometry" />
        </mxCell>
        <mxCell id="3EpWb8FBWg7WW-v6C6NJ-24" style="edgeStyle=none;rounded=0;orthogonalLoop=1;jettySize=auto;html=1;exitX=0.5;exitY=0;exitDx=0;exitDy=0;entryX=0.5;entryY=1;entryDx=0;entryDy=0;startArrow=none;startFill=0;endArrow=none;endFill=0;" edge="1" parent="1" source="3EpWb8FBWg7WW-v6C6NJ-23" target="3EpWb8FBWg7WW-v6C6NJ-2">
          <mxGeometry relative="1" as="geometry" />
        </mxCell>
        <mxCell id="3EpWb8FBWg7WW-v6C6NJ-23" value="地区编号" style="ellipse;whiteSpace=wrap;html=1;align=center;" vertex="1" parent="1">
          <mxGeometry x="200" y="260" width="100" height="40" as="geometry" />
        </mxCell>
        <mxCell id="3EpWb8FBWg7WW-v6C6NJ-31" value="" style="edgeStyle=none;rounded=0;orthogonalLoop=1;jettySize=auto;html=1;startArrow=none;startFill=0;endArrow=none;endFill=0;" edge="1" parent="1" source="3EpWb8FBWg7WW-v6C6NJ-27" target="3EpWb8FBWg7WW-v6C6NJ-5">
          <mxGeometry relative="1" as="geometry" />
        </mxCell>
        <mxCell id="3EpWb8FBWg7WW-v6C6NJ-27" value="地区名称" style="ellipse;whiteSpace=wrap;html=1;align=center;" vertex="1" parent="1">
          <mxGeometry x="580" y="160" width="100" height="40" as="geometry" />
        </mxCell>
        <mxCell id="3EpWb8FBWg7WW-v6C6NJ-29" style="edgeStyle=none;rounded=0;orthogonalLoop=1;jettySize=auto;html=1;entryX=0.5;entryY=0;entryDx=0;entryDy=0;startArrow=none;startFill=0;endArrow=none;endFill=0;" edge="1" parent="1" source="3EpWb8FBWg7WW-v6C6NJ-28" target="3EpWb8FBWg7WW-v6C6NJ-5">
          <mxGeometry relative="1" as="geometry" />
        </mxCell>
        <mxCell id="3EpWb8FBWg7WW-v6C6NJ-28" value="地区编号" style="ellipse;whiteSpace=wrap;html=1;align=center;" vertex="1" parent="1">
          <mxGeometry x="530" y="80" width="100" height="40" as="geometry" />
        </mxCell>
      </root>
    </mxGraphModel>
  </diagram>
</mxfile>
